<svg id="Layer_1" data-name="Layer 1" xmlns="http://www.w3.org/2000/svg" viewBox="0 0 1080 1080"><defs><style>.cls-1{fill:#f15a24;}.cls-2{fill:#423f3e;}.cls-3{fill:none;stroke:gray;stroke-linecap:round;stroke-linejoin:round;stroke-width:0;}</style></defs><polygon class="cls-1" points="328.37 746.12 328.37 745.23 218.39 681.74 108.41 745.23 108.41 746.12 218.39 809.62 328.37 746.12"/><polygon class="cls-2" points="108.41 746.12 108.41 872.23 218.39 935.73 218.39 809.62 108.41 746.12"/><polygon class="cls-2" points="218.39 809.62 218.39 935.73 328.37 872.23 328.37 746.12 218.39 809.62"/><line class="cls-3" x1="108.41" y1="746.12" x2="218.39" y2="809.62"/><line class="cls-3" x1="218.39" y1="809.62" x2="328.37" y2="746.12"/><polygon class="cls-1" points="328.37 566.97 328.37 566.08 218.39 502.58 108.41 566.08 108.41 566.97 218.39 630.47 328.37 566.97"/><polygon class="cls-2" points="108.41 566.97 108.41 693.08 218.39 756.58 218.39 630.47 108.41 566.97"/><polygon class="cls-2" points="218.39 630.47 218.39 756.58 328.37 693.08 328.37 566.97 218.39 630.47"/><line class="cls-3" x1="108.41" y1="566.97" x2="218.39" y2="630.47"/><line class="cls-3" x1="218.39" y1="630.47" x2="328.37" y2="566.97"/><polygon class="cls-1" points="328.37 387.81 328.37 386.92 218.39 323.42 108.41 386.92 108.41 387.81 218.39 451.31 328.37 387.81"/><polygon class="cls-2" points="108.41 387.81 108.41 513.92 218.39 577.42 218.39 451.31 108.41 387.81"/><polygon class="cls-2" points="218.39 451.31 218.39 577.42 328.37 513.92 328.37 387.81 218.39 451.31"/><line class="cls-3" x1="108.41" y1="387.81" x2="218.39" y2="451.31"/><line class="cls-3" x1="218.39" y1="451.31" x2="328.37" y2="387.81"/><polygon class="cls-1" points="328.37 208.66 328.37 207.77 218.39 144.27 108.41 207.77 108.41 208.66 218.39 272.15 328.37 208.66"/><polygon class="cls-2" points="108.41 208.66 108.41 334.77 218.39 398.26 218.39 272.15 108.41 208.66"/><polygon class="cls-2" points="218.39 272.15 218.39 398.26 328.37 334.77 328.37 208.66 218.39 272.15"/><line class="cls-3" x1="108.41" y1="208.66" x2="218.39" y2="272.16"/><line class="cls-3" x1="218.39" y1="272.16" x2="328.37" y2="208.66"/><polygon class="cls-1" points="505.92 309.26 505.92 308.37 395.94 244.87 285.95 308.37 285.95 309.26 395.94 372.76 505.92 309.26"/><polygon class="cls-2" points="285.95 309.26 285.95 435.37 395.94 498.87 395.94 372.76 285.95 309.26"/><polygon class="cls-2" points="395.94 372.76 395.94 498.87 505.92 435.37 505.92 309.26 395.94 372.76"/><line class="cls-3" x1="285.95" y1="309.26" x2="395.94" y2="372.76"/><line class="cls-3" x1="395.94" y1="372.76" x2="505.92" y2="309.26"/><polygon class="cls-1" points="751.63 746.12 751.63 745.23 861.61 681.74 971.59 745.23 971.59 746.12 861.61 809.62 751.63 746.12"/><polygon class="cls-2" points="971.59 746.12 971.59 872.23 861.61 935.73 861.61 809.62 971.59 746.12"/><polygon class="cls-2" points="861.61 809.62 861.61 935.73 751.63 872.23 751.63 746.12 861.61 809.62"/><line class="cls-3" x1="861.61" y1="935.73" x2="861.61" y2="809.62"/><line class="cls-3" x1="971.59" y1="746.12" x2="861.61" y2="809.62"/><line class="cls-3" x1="861.61" y1="809.62" x2="751.63" y2="746.12"/><polygon class="cls-1" points="751.63 566.97 751.63 566.08 861.61 502.58 971.59 566.08 971.59 566.97 861.61 630.47 751.63 566.97"/><polygon class="cls-2" points="971.59 566.97 971.59 693.08 861.61 756.58 861.61 630.47 971.59 566.97"/><polygon class="cls-2" points="861.61 630.47 861.61 756.58 751.63 693.08 751.63 566.97 861.61 630.47"/><line class="cls-3" x1="861.61" y1="756.58" x2="861.61" y2="630.47"/><line class="cls-3" x1="971.59" y1="566.97" x2="861.61" y2="630.47"/><line class="cls-3" x1="861.61" y1="630.47" x2="751.63" y2="566.97"/><polygon class="cls-1" points="751.63 387.81 751.63 386.92 861.61 323.42 971.59 386.92 971.59 387.81 861.61 451.31 751.63 387.81"/><polygon class="cls-2" points="971.59 387.81 971.59 513.92 861.61 577.42 861.61 451.31 971.59 387.81"/><polygon class="cls-2" points="861.61 451.31 861.61 577.42 751.63 513.92 751.63 387.81 861.61 451.31"/><line class="cls-3" x1="861.61" y1="577.42" x2="861.61" y2="451.31"/><line class="cls-3" x1="971.59" y1="387.81" x2="861.61" y2="451.31"/><line class="cls-3" x1="861.61" y1="451.31" x2="751.63" y2="387.81"/><polygon class="cls-1" points="751.63 208.66 751.63 207.77 861.61 144.27 971.59 207.77 971.59 208.66 861.61 272.15 751.63 208.66"/><polygon class="cls-2" points="971.59 208.66 971.59 334.77 861.61 398.26 861.61 272.15 971.59 208.66"/><polygon class="cls-2" points="861.61 272.15 861.61 398.26 751.63 334.77 751.63 208.66 861.61 272.15"/><line class="cls-3" x1="861.61" y1="398.26" x2="861.61" y2="272.16"/><line class="cls-3" x1="971.59" y1="208.66" x2="861.61" y2="272.16"/><line class="cls-3" x1="861.61" y1="272.16" x2="751.63" y2="208.66"/><polygon class="cls-1" points="574.08 309.26 574.08 308.37 684.07 244.87 794.05 308.37 794.05 309.26 684.07 372.76 574.08 309.26"/><polygon class="cls-2" points="794.05 309.26 794.05 435.37 684.07 498.87 684.07 372.76 794.05 309.26"/><polygon class="cls-2" points="684.07 372.76 684.07 498.87 574.08 435.37 574.08 309.26 684.07 372.76"/><line class="cls-3" x1="684.06" y1="498.87" x2="684.06" y2="372.76"/><line class="cls-3" x1="794.05" y1="309.26" x2="684.06" y2="372.76"/><line class="cls-3" x1="684.06" y1="372.76" x2="574.08" y2="309.26"/><polygon class="cls-1" points="649.86 390.77 649.86 389.88 539.87 326.38 429.89 389.88 429.89 390.77 539.87 454.27 649.86 390.77"/><polygon class="cls-2" points="429.89 390.77 429.89 516.88 539.87 580.38 539.87 454.27 429.89 390.77"/><polygon class="cls-2" points="539.87 454.27 539.87 580.38 649.86 516.88 649.86 390.77 539.87 454.27"/><line class="cls-3" x1="429.89" y1="390.77" x2="539.87" y2="454.27"/><line class="cls-3" x1="539.87" y1="454.27" x2="649.86" y2="390.77"/><path class="cls-1" d="M414.42,791.91a15.13,15.13,0,0,1-8.78-2.77,12.22,12.22,0,0,1-2.43-18.23c3-3.54,16.61-16.57,38.23-29.47,27.88-16.63,58.33-26.39,88.05-28.22,50.94-3.14,100,15.84,145.77,56.39a12.17,12.17,0,0,1,.27,18.35,15.25,15.25,0,0,1-20.15.25c-39.44-34.93-80.83-51.46-123-49.15-31.43,1.73-57.87,13.81-74.52,23.64-18.5,10.92-30.28,22.06-32.2,24.23A14.76,14.76,0,0,1,414.42,791.91Zm43.76,28c3.27-3.43,33.23-33.49,76.3-35.29,29.36-1.23,59,10.93,88,36.15a15.25,15.25,0,0,0,20.15-.43,12.17,12.17,0,0,0-.47-18.35c-34.88-30.3-71.55-44.87-109-43.3-53.77,2.25-89.81,37.19-96.49,44.17a12.19,12.19,0,0,0,1.38,18.31,15.08,15.08,0,0,0,9.36,3.19A14.89,14.89,0,0,0,458.18,820Zm33.88,33.13c2.74-4.19,19.43-19.69,41.59-21.85,18.78-1.84,37.58,6.26,55.88,24.07a15.26,15.26,0,0,0,20.14.61,12.18,12.18,0,0,0,.68-18.34c-30.83-30-60.38-34-79.74-32.15-32.7,3.2-56.59,24.53-63,34.36-4,6.16-1.82,14.12,4.94,17.8a15.31,15.31,0,0,0,7.29,1.83A14.61,14.61,0,0,0,492.06,853.08Zm48.2,3.45c-15.12,0-27.37,11.15-27.37,24.91s12.25,24.92,27.37,24.92,27.36-11.16,27.36-24.92S555.37,856.53,540.26,856.53Z"/></svg>